HIERARCHY
ROOT Hips
{
	OFFSET 0.00000 0.00000 0.00000
	CHANNELS 6 Xposition Yposition Zposition Zrotation Yrotation Xrotation 
	JOINT LHipJoint
	{
		OFFSET 0 0 0
		CHANNELS 3 Zrotation Yrotation Xrotation
		JOINT LeftHip
		{
			OFFSET 1.30186 -1.90722 0.65024
			CHANNELS 3 Zrotation Yrotation Xrotation
			JOINT LeftKnee
			{
				OFFSET 2.56413 -7.04489 0.00000
				CHANNELS 3 Zrotation Yrotation Xrotation
				JOINT LeftAnkle
				{
					OFFSET 2.79321 -7.67428 0.00000
					CHANNELS 3 Zrotation Yrotation Xrotation
					JOINT LeftToe
					{
						OFFSET 0.15723 -0.43198 2.08537
						CHANNELS 3 Zrotation Yrotation Xrotation
						End Site
						{
							OFFSET 0.00000 -0.00000 1.07411
						}
					}
				}
			}
		}
	}
	JOINT RHipJoint
	{
		OFFSET 0 0 0
		CHANNELS 3 Zrotation Yrotation Xrotation
		JOINT RightHip
		{
			OFFSET -1.28627 -1.90723 0.65024
			CHANNELS 3 Zrotation Yrotation Xrotation
			JOINT RightKnee
			{
				OFFSET -2.56567 -7.04913 0.00000
				CHANNELS 3 Zrotation Yrotation Xrotation
				JOINT RightAnkle
				{
					OFFSET -2.75597 -7.57198 0.00000
					CHANNELS 3 Zrotation Yrotation Xrotation
					JOINT RightToe
					{
						OFFSET -0.17500 -0.48081 2.22901
						CHANNELS 3 Zrotation Yrotation Xrotation
						End Site
						{
							OFFSET -0.00000 -0.00000 1.14762
						}
					}
				}
			}
		}
	}
	JOINT lowerback
	{
		OFFSET 0 0 0
		CHANNELS 3 Zrotation Yrotation Xrotation
		JOINT Chest
		{
			OFFSET -0.04522 2.07467 -0.16566
			CHANNELS 3 Zrotation Yrotation Xrotation
			JOINT Chest2
			{
				OFFSET -0.01178 2.08825 -0.05393
				CHANNELS 3 Zrotation Yrotation Xrotation
				JOINT lowerneck
				{
					OFFSET 0 0 0
					CHANNELS 3 Zrotation Yrotation Xrotation
					JOINT Neck
					{
						OFFSET -0.05182 1.80489 0.16014
						CHANNELS 3 Zrotation Yrotation Xrotation
						JOINT Head
						{
							OFFSET 0.14739 1.78840 -0.33342
							CHANNELS 3 Zrotation Yrotation Xrotation
							End Site
							{
								OFFSET 0.04364 1.83899 -0.13460
							}
						}
					}
				}
				JOINT LeftCollar
				{
					OFFSET 0 0 0
					CHANNELS 3 Zrotation Yrotation Xrotation
					JOINT LeftShoulder
					{
						OFFSET 3.01264 1.29090 -0.06579
CHANNELS 3 Zrotation Xrotation Yrotation
						JOINT LeftElbow
						{
OFFSET 0 -5.556800 0.000000
CHANNELS 3 Zrotation Xrotation Yrotation
							JOINT LeftWrist
							{
OFFSET 0 -3.639790 -0.000000
CHANNELS 3 Zrotation Xrotation Yrotation
								JOINT lhand
								{
									OFFSET 0 0 0
CHANNELS 3 Zrotation Xrotation Yrotation
									JOINT LFingers
									{
OFFSET 0 -0.569420 -0.000000
CHANNELS 3 Zrotation Xrotation Yrotation
										End Site
										{
OFFSET 0 -0.459080 -0.000000
										}
									}
								}
								JOINT LThumb
								{
OFFSET 0 0.000000 0.000000
CHANNELS 3 Zrotation Xrotation Yrotation
									End Site
									{
OFFSET 0 -0.466090 0.466090
									}
								}
							}
						}
					}
				}
				JOINT RightCollar
				{
					OFFSET 0 0 0
					CHANNELS 3 Zrotation Yrotation Xrotation
					JOINT RightShoulder
					{
						OFFSET -3.15796 1.37283 -0.36748
CHANNELS 3 Zrotation Xrotation Yrotation
						JOINT RightElbow
						{
OFFSET 0 -5.343390 0.000000
CHANNELS 3 Zrotation Xrotation Yrotation
							JOINT RightWrist
							{
OFFSET 0 -3.651010 -0.000000
CHANNELS 3 Zrotation Xrotation Yrotation
								JOINT rhand
								{
									OFFSET 0 0 0
CHANNELS 3 Zrotation Xrotation Yrotation
									JOINT RFingers
									{
OFFSET 0 -0.694250 -0.000000
CHANNELS 3 Zrotation Xrotation Yrotation
										End Site
										{
OFFSET 0 -0.559720 -0.000000
										}
									}
								}
								JOINT RThumb
								{
OFFSET 0 0.000000 0.000000
CHANNELS 3 Zrotation Xrotation Yrotation
									End Site
									{
OFFSET 0 -0.568270 0.568270
									}
								}
							}
						}
					}
				}
			}
		}
	}
}
MOTION
Frames: 6
Frame Time: 0.008333333333333333
7.438700 18.180068 -8.925810 -3.242285 -8.260524 0.140611 0.000000 0.000000 0.000000 -9.441302 -8.743426 -24.667398 2.214750 9.296623 26.729990 0.162034 6.336135 -12.423167 0.822108 -5.784784 -16.161314 0.000000 0.000000 0.000000 29.194589 4.039997 5.145116 -0.933759 -6.154038 17.232263 -0.682792 0.352270 -15.498540 -1.036437 -6.450280 18.105389 -0.095360 -0.896326 0.358103 -0.370560 -1.204237 -1.713666 -0.301275 -0.603592 -1.961947 -2.097327 -2.634768 -12.733050 0.736464 -3.286459 12.722847 0.284110 -1.642219 5.992079 0.000000 0.000000 0.000000 17.161316 8.552217 -4.620894 10.436438 -17.418371 1.603932 19.802520 14.303993 -14.165380 0.000000 0.000000 0.000000 -7.125000 0.000000 0.000000 -7.129610 44.873835 -0.009965 0.000000 0.000000 0.000000 -81.348570 -41.574998 -52.756666 -107.160038 -58.857541 -74.804041 -50.431495 -32.967088 -41.701370 0.000000 0.000000 0.000000 7.125000 0.000000 0.000000 -6.404538 -24.185361 -8.503473
7.432909 18.179049 -8.875761 -3.191443 -8.370760 0.133449 0.000000 0.000000 0.000000 -9.338338 -9.126285 -24.469952 2.129514 9.130045 26.203465 0.140586 6.560806 -12.288304 0.829042 -5.804169 -16.218621 0.000000 0.000000 0.000000 29.134522 3.650745 5.420499 -0.901114 -6.048942 16.926588 -0.670765 0.249087 -15.394140 -0.865189 -5.881335 16.452979 -0.232559 -0.893869 0.361764 -0.377123 -1.202974 -1.730963 -0.230994 -0.600903 -1.978986 -2.067328 -2.658356 -12.616694 0.654694 -3.312985 12.574882 0.253496 -1.660485 5.923966 0.000000 0.000000 0.000000 17.200677 8.652521 -3.841662 10.234611 -17.105506 1.543427 20.083728 14.639014 -13.503869 0.000000 0.000000 0.000000 -7.125000 0.000000 0.000000 -6.726014 44.218673 -0.129715 0.000000 0.000000 0.000000 -81.265310 -42.370090 -52.507128 -107.095532 -58.866332 -74.748821 -50.038024 -32.122101 -41.353166 0.000000 0.000000 0.000000 7.125000 0.000000 0.000000 -6.369636 -23.633042 -8.426274
7.427549 18.177815 -8.827401 -3.211805 -8.526367 0.180382 0.000000 0.000000 0.000000 -9.166997 -9.438309 -24.365520 2.061756 8.991175 25.769309 0.115944 6.793310 -12.106474 0.930003 -6.127414 -17.159435 0.000000 0.000000 0.000000 29.142004 3.375242 5.687865 -0.862357 -5.918903 16.550046 -0.656342 0.147779 -15.259666 -0.615948 -4.817925 13.429231 -0.301165 -0.941881 0.302606 -0.392471 -1.267724 -1.712105 -0.208357 -0.632371 -1.925343 -1.908713 -2.597193 -12.734624 0.585857 -3.247541 12.591503 0.210227 -1.626009 5.944444 0.000000 0.000000 0.000000 17.256595 8.732734 -2.696303 10.058218 -16.829810 1.492445 20.254414 15.379756 -13.249614 0.000000 0.000000 0.000000 -7.125000 0.000000 0.000000 -6.521623 43.971322 -0.164191 0.000000 0.000000 0.000000 -81.125283 -43.411017 -52.238914 -107.007220 -58.878287 -74.673235 -49.724574 -31.417802 -41.132809 0.000000 0.000000 0.000000 7.125000 0.000000 0.000000 -6.313294 -23.248903 -8.329324
7.422188 18.176581 -8.779041 -3.232167 -8.681974 0.227315 0.000000 0.000000 0.000000 -8.995656 -9.750332 -24.261088 1.993999 8.852305 25.335152 0.091301 7.025814 -11.924643 1.030964 -6.450660 -18.100249 0.000000 0.000000 0.000000 29.149485 3.099739 5.955231 -0.823600 -5.788864 16.173505 -0.641919 0.046471 -15.125192 -0.366707 -3.754516 10.405483 -0.369770 -0.989894 0.243448 -0.407820 -1.332473 -1.693247 -0.185720 -0.663840 -1.871700 -1.750098 -2.536030 -12.852553 0.517020 -3.182097 12.608124 0.166958 -1.591532 5.964922 0.000000 0.000000 0.000000 17.312514 8.812948 -1.550944 9.881825 -16.554114 1.441463 20.425099 16.120499 -12.995360 0.000000 0.000000 0.000000 -7.125000 0.000000 0.000000 -6.317233 43.723971 -0.198668 0.000000 0.000000 0.000000 -80.985256 -44.451944 -51.970699 -106.918907 -58.890242 -74.597649 -49.411124 -30.713502 -40.912453 0.000000 0.000000 0.000000 7.125000 0.000000 0.000000 -6.256952 -22.864764 -8.232373
7.415133 18.178430 -8.730541 -3.289627 -8.872772 0.284981 0.000000 0.000000 0.000000 -8.772529 -10.029731 -24.173016 1.937234 8.733067 24.964410 0.071225 7.234567 -11.801731 1.105868 -6.678595 -18.767584 0.000000 0.000000 0.000000 29.196513 2.917710 6.250256 -0.783031 -5.646632 15.763255 -0.624483 0.013426 -14.927469 -0.329507 -3.646069 10.087994 -0.395394 -1.074722 0.155738 -0.437057 -1.445054 -1.599793 -0.202605 -0.720118 -1.727031 -1.534189 -2.408086 -13.210983 0.486057 -3.041470 12.693362 0.130256 -1.513861 6.047331 0.000000 0.000000 0.000000 17.429351 8.812799 -0.396240 9.720967 -16.301510 1.395989 20.371267 16.693171 -13.123077 0.000000 0.000000 0.000000 -7.125000 0.000000 0.000000 -6.391758 43.851576 -0.179122 0.000000 0.000000 0.000000 -80.894967 -45.716046 -51.869260 -106.809457 -58.904881 -74.503914 -48.889068 -29.818347 -40.702454 0.000000 0.000000 0.000000 7.125000 0.000000 0.000000 -6.095342 -22.386586 -7.991951
7.406996 18.182248 -8.681950 -3.370766 -9.086032 0.349499 0.000000 0.000000 0.000000 -8.516346 -10.288304 -24.095386 1.887486 8.626360 24.634146 0.054064 7.428160 -11.716427 1.164138 -6.845694 -19.260359 0.000000 0.000000 0.000000 29.268782 2.795346 6.562935 -0.741304 -5.496617 15.331489 -0.605124 0.023954 -14.689373 -0.427653 -4.147173 11.497904 -0.393581 -1.183049 0.049802 -0.475158 -1.588166 -1.458725 -0.244717 -0.792234 -1.524260 -1.281708 -2.237516 -13.722924 0.479270 -2.852852 12.822398 0.097747 -1.408620 6.169271 0.000000 0.000000 0.000000 17.585074 8.761354 0.764429 9.570027 -16.063646 1.354031 20.174127 17.158565 -13.494605 0.000000 0.000000 0.000000 -7.125000 0.000000 0.000000 -6.644316 44.218515 -0.125093 0.000000 0.000000 0.000000 -80.836427 -47.122601 -51.874273 -106.686514 -58.921232 -74.398595 -48.233861 -28.801368 -40.499066 0.000000 0.000000 0.000000 7.125000 0.000000 0.000000 -5.866540 -21.848383 -7.659951
